<?xml version="1.0" encoding="UTF-8" standalone="no"?>
<!DOCTYPE svg PUBLIC "-//W3C//DTD SVG 1.1//EN" "http://www.w3.org/Graphics/SVG/1.1/DTD/svg11.dtd">
<svg width="44px" height="54px" version="" xmlns="http://www.w3.org/2000/svg" xmlns:xlink="http://www.w3.org/1999/xlink" xml:space="preserve" xmlns:serif="http://www.serif.com/" style="fill-rule:evenodd;clip-rule:evenodd;stroke-linejoin:round;stroke-miterlimit:2;" viewBox="0 0 696 804">
	<g transform="matrix(1,0,0,1,-480.336,-2099.17)">
		<path d="M654.335,2400.54L654.335,2601.46L828.334,2701.92L828.334,2501L654.335,2400.54Z" style="fill:url(#_Linear1);fill-rule:nonzero;"></path>
		<path d="M828.334,2701.92L1002.33,2601.46L1002.33,2400.54L828.334,2501L828.334,2701.92Z" style="fill:rgb(182,220,254);"></path>
		<path d="M480.336,2501L828.334,2701.92L828.334,2902.84L480.336,2701.92L480.336,2501Z" style="fill:url(#_Linear2);fill-rule:nonzero;"></path>
		<path d="M828.334,2902.84L1176.33,2701.92L1176.33,2501L828.334,2701.92L828.334,2902.84Z" style="fill:url(#_Linear3);fill-rule:nonzero;"></path>
		<path d="M480.336,2300.08L828.334,2099.17L828.334,2300.08L654.335,2400.54L480.336,2300.08Z" style="fill:url(#_Linear4);fill-rule:nonzero;"></path>
		<path d="M828.334,2099.17L1176.33,2300.08L1002.33,2400.54L828.334,2300.08L828.334,2099.17Z" style="fill:url(#_Linear5);fill-rule:nonzero;"></path>
		<path d="M654.335,2400.54L828.334,2501L1002.33,2400.54L828.334,2300.08L654.335,2400.54Z" style="fill:rgb(205,237,253);"></path>
		<path d="M480.336,2300.08L654.335,2400.54L654.335,2601.46L480.336,2501L480.336,2300.08Z" style="fill:url(#_Linear6);fill-rule:nonzero;"></path>
		<path d="M1002.33,2400.54L1176.33,2300.08L1176.33,2501L1002.33,2601.46L1002.33,2400.54Z" style="fill:url(#_Linear7);fill-rule:nonzero;"></path>
	</g>
	<defs>
		<linearGradient id="_Linear1" x1="0" y1="0" x2="1" y2="0" gradientUnits="userSpaceOnUse" gradientTransform="matrix(-173.998,-0.00973173,0.00973173,-173.998,828.342,2551.24)"><stop offset="0" style="stop-color:rgb(165,121,181);stop-opacity:1"></stop><stop offset="1" style="stop-color:rgb(154,110,176);stop-opacity:1"></stop></linearGradient>
		<linearGradient id="_Linear2" x1="0" y1="0" x2="1" y2="0" gradientUnits="userSpaceOnUse" gradientTransform="matrix(348.02,0.0194924,-0.0194924,348.02,480.325,2701.91)"><stop offset="0" style="stop-color:rgb(211,186,219);stop-opacity:1"></stop><stop offset="1" style="stop-color:rgb(186,147,195);stop-opacity:1"></stop></linearGradient>
		<linearGradient id="_Linear3" x1="0" y1="0" x2="1" y2="0" gradientUnits="userSpaceOnUse" gradientTransform="matrix(-347.963,-0.0194616,0.0194616,-347.963,1176.33,2701.93)"><stop offset="0" style="stop-color:rgb(193,232,251);stop-opacity:1"></stop><stop offset="1" style="stop-color:rgb(177,223,226);stop-opacity:1"></stop></linearGradient>
		<linearGradient id="_Linear4" x1="0" y1="0" x2="1" y2="0" gradientUnits="userSpaceOnUse" gradientTransform="matrix(139.197,-241.102,241.102,139.197,645.635,2315.15)"><stop offset="0" style="stop-color:rgb(177,223,226);stop-opacity:1"></stop><stop offset="1" style="stop-color:rgb(167,211,240);stop-opacity:1"></stop></linearGradient>
		<linearGradient id="_Linear5" x1="0" y1="0" x2="1" y2="0" gradientUnits="userSpaceOnUse" gradientTransform="matrix(-139.196,-241.103,241.103,-139.196,1011.03,2315.15)"><stop offset="0" style="stop-color:rgb(131,209,225);stop-opacity:1"></stop><stop offset="1" style="stop-color:rgb(167,211,240);stop-opacity:1"></stop></linearGradient>
		<linearGradient id="_Linear6" x1="0" y1="0" x2="1" y2="0" gradientUnits="userSpaceOnUse" gradientTransform="matrix(174.66,0.383822,-0.383822,174.66,480.005,2450.58)"><stop offset="0" style="stop-color:rgb(186,147,195);stop-opacity:1"></stop><stop offset="1" style="stop-color:rgb(165,121,181);stop-opacity:1"></stop></linearGradient>
		<linearGradient id="_Linear7" x1="0" y1="0" x2="1" y2="0" gradientUnits="userSpaceOnUse" gradientTransform="matrix(-43.1596,-76.9714,76.9714,-43.1596,1110.91,2489.26)"><stop offset="0" style="stop-color:rgb(177,223,226);stop-opacity:1"></stop><stop offset="1" style="stop-color:rgb(167,211,240);stop-opacity:1"></stop></linearGradient>
	</defs>
</svg>
