<svg xmlns="http://www.w3.org/2000/svg" xmlns:xlink="http://www.w3.org/1999/xlink" xmlns:serif="http://www.serif.com/" width="100%" height="50px" viewBox="0 0 965 1671" version="1.1" xml:space="preserve">
    <g transform="matrix(1,0,0,1,-4639.17,-3537.33)">
        <g transform="matrix(4.16667,0,0,4.16667,0,0)">
            <g transform="matrix(1,0,0,1,-20.5599,-142.83)">
                <path d="M1133.96,1058.63L1133.96,1325.99L1133.97,1325.99L1191.85,1359.42L1249.74,1392.83L1249.74,1259.15L1307.62,1225.73L1365.5,1192.31L1365.5,1058.63L1307.62,1025.21L1249.73,991.79L1191.85,1025.21L1133.96,1058.63ZM1249.74,1221.77L1249.74,1125.47L1249.73,1125.47L1191.85,1092.05L1166.34,1077.32L1208.04,1053.25L1249.73,1029.17L1291.43,1053.25L1333.13,1077.32L1333.13,1173.62L1291.43,1197.69L1249.74,1221.77Z" style="/* fill:rgb(72,128,194); */"></path>
            </g>
        </g>
    </g>
</svg>